<svg t="1647085811990" class="icon" viewBox="0 0 1024 1024" version="1.1" xmlns="http://www.w3.org/2000/svg" p-id="2873" width="16" height="16"><path d="M85.333333 512C85.333333 277.333333 277.333333 85.333333 512 85.333333c21.333333 0 38.4 17.066667 38.4 38.4s-17.066667 38.4-38.4 38.4c-192 0-345.6 153.6-345.6 345.6S320 853.333333 512 853.333333s345.6-153.6 345.6-345.6c0-21.333333 17.066667-38.4 38.4-38.4s38.4 17.066667 38.4 38.4c0 234.666667-192 426.666667-426.666667 426.666667C277.333333 938.666667 85.333333 746.666667 85.333333 512z m311.466667 115.2c-17.066667-17.066667-17.066667-42.666667 0-59.733333L793.6 170.666667H640c-25.6 0-42.666667-17.066667-42.666667-42.666667s17.066667-42.666667 42.666667-42.666667h260.266667c4.266667 0 8.533333 0 12.8 4.266667 4.266667 0 8.533333 4.266667 12.8 8.533333l4.266666 4.266667 8.533334 12.8v264.533333c0 25.6-17.066667 42.666667-42.666667 42.666667s-42.666667-17.066667-42.666667-42.666667V230.4l-396.8 396.8c-8.533333 8.533333-17.066667 12.8-29.866666 12.8-12.8 0-21.333333-4.266667-29.866667-12.8z" p-id="2874" fill="#2E8B57"></path></svg>